<svg xmlns="http://www.w3.org/2000/svg" width="1000" height="1000" viewBox="0 0 1000 1000">
  <metadata><?xpacket begin="﻿" id="W5M0MpCehiHzreSzNTczkc9d"?>
<x:xmpmeta xmlns:x="adobe:ns:meta/" x:xmptk="Adobe XMP Core 5.6-c140 79.160451, 2017/05/06-01:08:21        ">
   <rdf:RDF xmlns:rdf="http://www.w3.org/1999/02/22-rdf-syntax-ns#">
      <rdf:Description rdf:about=""/>
   </rdf:RDF>
</x:xmpmeta>
                                                                                                    
                                                                                                    
                                                                                                    
                                                                                                    
                                                                                                    
                                                                                                    
                                                                                                    
                                                                                                    
                                                                                                    
                                                                                                    
                                                                                                    
                                                                                                    
                                                                                                    
                                                                                                    
                                                                                                    
                                                                                                    
                                                                                                    
                                                                                                    
                                                                                                    
                                                                                                    
                           
<?xpacket end="w"?></metadata>
<defs>
    <style>
      .cls-1 {
        fill: #fff;
        fill-rule: evenodd;
      }
    </style>
  </defs>
  <path id="Q" class="cls-1" d="M274.484,583.972q12.47,71.367,39,113.547t68.657,58.859q42.117,16.663,100.375,16.656,76.968,0,120.672-28.64,43.686-28.641,65.531-79.172,21.843-50.508,27.562-119.781T702,394.909q0-72.913-4.688-139.062T670.8,139.191q-21.844-50.532-66.063-80.219Q560.532,29.3,482.516,29.284q-72.821,0-116.5,27.609t-66.578,77.593q-22.875,50.016-30.157,118.75Q261.993,322,262,404.284,262,512.612,274.484,583.972ZM675.312,984.628q-53.625-6.258-88.468-19.781-34.875-13.571-57.766-37.5-22.9-23.953-45.781-64.578a475.162,475.162,0,0,0-31.235-45.3q-16.639-21.375-30.171-35.938a361.885,361.885,0,0,1-127.485-42.687A409.754,409.754,0,0,1,189.3,655.534a381.3,381.3,0,0,1-71.281-114.562Q92,476.4,92,404.534q0-88.5,35.922-160.375,35.929-71.859,92.172-122.89a411.306,411.306,0,0,1,126-78.625q69.772-27.609,136.422-27.609,71.859,0,142.156,27.063a392.7,392.7,0,0,1,124.969,77.031Q804.3,169.1,838.156,240.394T872,401.222A356.048,356.048,0,0,1,840.234,549.55a409.216,409.216,0,0,1-85.406,123.359,404.818,404.818,0,0,1-123.922,83.782,366.741,366.741,0,0,1-148.39,30.7,181.855,181.855,0,0,1-35.407-3.125,141.365,141.365,0,0,0,20.266,18.75q9.891,7.264,24.953,11.968a247.709,247.709,0,0,0,35.875,7.8q20.789,3.117,53.031,6.25,51.985,5.2,78.5,29.235,26.508,24,46.266,59.5,10.407,18.8,18.234,30.812a66.714,66.714,0,0,0,18.75,19.313q10.923,7.289,27.078,9.922,16.149,2.6,43.235,2.609v14.609Q728.922,990.863,675.312,984.628Z"/>
</svg>
