<svg xmlns="http://www.w3.org/2000/svg" width="1000" height="1000" viewBox="0 0 1000 1000">
  <metadata><?xpacket begin="﻿" id="W5M0MpCehiHzreSzNTczkc9d"?>
<x:xmpmeta xmlns:x="adobe:ns:meta/" x:xmptk="Adobe XMP Core 5.6-c140 79.160451, 2017/05/06-01:08:21        ">
   <rdf:RDF xmlns:rdf="http://www.w3.org/1999/02/22-rdf-syntax-ns#">
      <rdf:Description rdf:about=""/>
   </rdf:RDF>
</x:xmpmeta>
                                                                                                    
                                                                                                    
                                                                                                    
                                                                                                    
                                                                                                    
                                                                                                    
                                                                                                    
                                                                                                    
                                                                                                    
                                                                                                    
                                                                                                    
                                                                                                    
                                                                                                    
                                                                                                    
                                                                                                    
                                                                                                    
                                                                                                    
                                                                                                    
                                                                                                    
                                                                                                    
                           
<?xpacket end="w"?></metadata>
<defs>
    <style>
      .cls-1 {
        fill: #000019;
        fill-rule: evenodd;
      }
    </style>
  </defs>
  <path id="Q" class="cls-1" d="M274.7,583.925q12.469,71.367,39,113.547t68.657,58.859Q424.469,773,482.727,772.987q76.968,0,120.671-28.64,43.688-28.641,65.532-79.172,21.843-50.508,27.562-119.781t5.719-150.532q0-72.914-4.688-139.062T671.008,139.144q-21.844-50.532-66.063-80.219-44.2-29.672-122.218-29.687-72.82,0-116.5,27.609t-66.579,77.594q-22.875,50.014-30.156,118.75-7.289,68.764-7.281,151.046Q262.211,512.566,274.7,583.925ZM675.523,984.581Q621.9,978.323,587.055,964.8q-34.875-13.57-57.766-37.5-22.9-23.953-45.781-64.578a475.162,475.162,0,0,0-31.235-45.3Q435.634,796.05,422.1,781.487A361.885,361.885,0,0,1,294.617,738.8a409.732,409.732,0,0,1-105.109-83.313,381.3,381.3,0,0,1-71.281-114.562q-26.016-64.57-26.016-136.438,0-88.5,35.922-160.375,35.929-71.859,92.172-122.89a411.3,411.3,0,0,1,126-78.625q69.772-27.609,136.422-27.609,71.859,0,142.156,27.062a392.712,392.712,0,0,1,124.969,77.031q54.655,49.97,88.515,121.266,33.844,71.3,33.844,160.828A356.048,356.048,0,0,1,840.445,549.5a409.216,409.216,0,0,1-85.406,123.359,404.818,404.818,0,0,1-123.922,83.782,366.741,366.741,0,0,1-148.39,30.7,181.855,181.855,0,0,1-35.407-3.125,141.365,141.365,0,0,0,20.266,18.75q9.891,7.266,24.953,11.969a247.853,247.853,0,0,0,35.875,7.8q20.789,3.119,53.031,6.25,51.985,5.2,78.5,29.235,26.508,24,46.266,59.5,10.406,18.8,18.234,30.812a66.688,66.688,0,0,0,18.75,19.313q10.923,7.289,27.078,9.922,16.149,2.6,43.235,2.609v14.609Q729.133,990.816,675.523,984.581Z"/>
</svg>
